<svg width="30" height="30" viewBox="0 0 30 30" fill="none" xmlns="http://www.w3.org/2000/svg">
<path fill-rule="evenodd" clip-rule="evenodd" d="M18.4372 6.25C18.4372 4.00634 20.256 2.1875 22.4997 2.1875C24.7433 2.1875 26.5622 4.00634 26.5622 6.25C26.5622 8.49364 24.7433 10.3125 22.4997 10.3125C20.256 10.3125 18.4372 8.49364 18.4372 6.25ZM22.4997 4.0625C21.2916 4.0625 20.3122 5.04188 20.3122 6.25C20.3122 7.45811 21.2916 8.4375 22.4997 8.4375C23.7078 8.4375 24.6872 7.45811 24.6872 6.25C24.6872 5.04188 23.7078 4.0625 22.4997 4.0625Z" fill="black"/>
<path fill-rule="evenodd" clip-rule="evenodd" d="M12.1948 7.86288C12.4277 7.78225 12.683 7.79655 12.9054 7.90271L19.7784 11.1831C20.0749 11.3246 20.2756 11.6109 20.3076 11.9378C20.3397 12.2647 20.1983 12.5845 19.9349 12.7808L14.1341 17.105L19.8901 20.8941C20.1062 21.0363 20.2539 21.2615 20.2982 21.5164C20.3426 21.7712 20.2797 22.0331 20.1244 22.24L15.7546 28.0616C15.4438 28.4757 14.8561 28.5594 14.442 28.2486C14.0279 27.9377 13.9442 27.3501 14.255 26.936L18.0262 21.9119L11.9861 17.9357C11.7307 17.7676 11.5734 17.4856 11.5645 17.18C11.5555 16.8745 11.6961 16.5837 11.9412 16.401L17.5687 12.206L12.4448 9.76052L7.80636 11.3666C7.31709 11.536 6.78313 11.2767 6.61372 10.7875C6.44431 10.2982 6.7036 9.76423 7.19287 9.59482L12.1948 7.86288Z" fill="black"/>
<path fill-rule="evenodd" clip-rule="evenodd" d="M28.1828 10.2742C28.5373 10.6515 28.5189 11.2448 28.1415 11.5994L24.3926 15.1219C24.0977 15.399 23.6582 15.4556 23.3027 15.2622L21.6267 14.3507C21.1718 14.1034 21.0036 13.5341 21.251 13.0792C21.4984 12.6244 22.0676 12.4562 22.5225 12.7036L23.6028 13.2911L26.8576 10.2329C27.235 9.87837 27.8283 9.89685 28.1828 10.2742Z" fill="black"/>
<path fill-rule="evenodd" clip-rule="evenodd" d="M11.0972 18.9692C11.5096 19.2823 11.5901 19.8704 11.277 20.2828L9.42094 22.7277C9.34314 22.8302 9.24509 22.9155 9.13287 22.9785L2.96075 26.4405C2.50917 26.6938 1.93776 26.533 1.68446 26.0814C1.43117 25.6299 1.59191 25.0584 2.04349 24.8051L8.04548 21.4386L9.7836 19.1491C10.0967 18.7367 10.6848 18.6562 11.0972 18.9692Z" fill="black"/>
</svg>
