<svg width="32" height="32" viewBox="0 0 32 32" fill="none" xmlns="http://www.w3.org/2000/svg">
<path fill-rule="evenodd" clip-rule="evenodd" d="M28.8865 1.00117C29.5273 1.00727 29.5555 1.01337 29.6541 1.17203C29.7527 1.32459 29.7386 1.37951 29.4147 2.11789C29.2245 2.54505 28.7245 3.68007 28.295 4.63813C27.8443 5.63891 27.4006 6.51763 27.2528 6.71291C27.1119 6.89598 26.795 7.2316 26.5486 7.46349C26.3021 7.68927 26.126 7.87234 26.1542 7.87234C26.1824 7.87234 27.1542 7.58553 28.3091 7.2316C29.4569 6.87767 30.478 6.59086 30.5766 6.59086C30.6752 6.59086 30.809 6.63968 30.8794 6.7007C30.971 6.77393 31.0062 6.89598 30.9991 7.14007C30.9991 7.32314 30.9498 7.7625 30.8935 8.11643C30.8372 8.47037 30.7034 9.04398 30.6048 9.39791C30.5132 9.75184 30.316 10.2888 30.1752 10.5879C30.0414 10.8869 29.809 11.3323 29.6611 11.5642C29.5133 11.7961 29.2386 12.1683 29.0555 12.388C28.8724 12.6077 28.5626 12.9311 28.3654 13.1142C28.1682 13.2912 27.8302 13.5597 27.6189 13.7C27.4077 13.8465 26.9922 14.0723 26.7035 14.2065C26.4148 14.3469 25.8866 14.5299 25.5415 14.6276C24.9359 14.7862 24.8444 14.7923 21.9078 14.7984L21.6966 15.073C21.5769 15.2256 21.3656 15.5429 20.9853 16.202L22.0909 18.9236H23.9923C25.3092 18.9175 25.9781 18.9419 26.1683 18.9968C26.3232 19.0334 26.6049 19.1921 26.8021 19.3446C26.9922 19.4972 27.2246 19.7535 27.3161 19.9244C27.4288 20.144 27.4781 20.3393 27.4781 20.6261C27.4781 20.8763 27.4288 21.1143 27.3513 21.2669C27.2809 21.4011 27.1119 21.6147 26.7387 21.9747L26.9007 22.1395C26.9852 22.231 27.133 22.4263 27.2175 22.5788C27.3302 22.7802 27.3725 22.9633 27.3725 23.2806C27.3654 23.6406 27.3373 23.7566 27.1542 24.0434C27.0274 24.2387 26.795 24.4706 26.5908 24.6048C26.4007 24.733 26.1401 24.855 26.0134 24.8794C25.8443 24.916 25.7951 24.9526 25.8303 25.0198C25.8584 25.0686 25.9218 25.2089 25.9711 25.3249C26.0204 25.4408 26.0627 25.7032 26.0627 25.9046C26.0627 26.1426 26.0204 26.3684 25.9218 26.5453C25.8443 26.6979 25.6613 26.9237 25.5204 27.0518C25.3796 27.18 25.1401 27.3386 24.7317 27.5217L24.9148 27.8085C25.0768 28.0709 25.0908 28.1563 25.0697 28.5896C25.0486 28.8825 24.9923 29.1571 24.9218 29.2731C24.8585 29.3829 24.6754 29.5843 24.5204 29.7185C24.3655 29.8528 24.1331 30.0114 24.0064 30.0663C23.8022 30.1701 23.3655 30.1762 18.4643 30.1945C14.9573 30.2067 12.887 30.1884 12.3729 30.1457C11.9433 30.1091 11.1406 29.9992 10.5772 29.9016C10.0138 29.804 9.06315 29.5843 8.46457 29.4195C7.866 29.2486 7.35193 29.1083 7.31672 29.1083C7.28855 29.1083 7.26742 29.267 7.26742 29.4561C7.26742 29.6636 7.21109 29.9077 7.13362 30.0541C7.0632 30.1884 6.92941 30.3837 6.83082 30.4813C6.73927 30.5789 6.48576 30.7376 5.89422 31H4.1478C2.73939 31 2.35912 30.9817 2.14785 30.9085C1.99997 30.8535 1.73942 30.6949 1.57041 30.5545C1.4014 30.4142 1.20422 30.1884 1.1338 30.0541C1.00704 29.8223 1 29.5232 1 17.3919L1.22535 17.0136C1.37323 16.7756 1.56336 16.5742 1.73942 16.4644C1.89434 16.3667 2.13377 16.2569 2.26757 16.2142C2.43658 16.1653 3.04924 16.1409 4.16892 16.1409C5.74634 16.1409 5.83789 16.147 6.17591 16.2813C6.36604 16.3606 6.60547 16.4827 6.69702 16.5559C6.78856 16.6291 6.93645 16.8244 7.02799 16.9953C7.11954 17.16 7.197 17.3675 7.197 17.4529C7.197 17.5384 7.22517 17.6421 7.25334 17.6848C7.28855 17.7519 7.40122 17.758 7.72516 17.7275C7.95754 17.7031 8.35894 17.6299 8.6195 17.5689C8.88709 17.5017 9.34483 17.3492 9.64059 17.2149C9.9434 17.0868 10.3659 16.861 10.5772 16.7207C10.7884 16.5742 11.2955 16.1776 11.7039 15.8297C12.2532 15.372 12.563 15.1585 12.9011 15.0181C13.1898 14.9022 13.5701 14.8045 13.9222 14.7679C14.2531 14.7252 15.3235 14.7069 16.5136 14.7191C18.2741 14.7374 18.5347 14.7252 18.5277 14.6459C18.5277 14.5971 18.4079 14.3041 18.2601 14.0051C18.0558 13.5719 17.9643 13.4437 17.8305 13.4132C17.7319 13.3888 17.3516 13.2973 16.9855 13.2118C16.6193 13.1264 16.0629 12.9555 15.7531 12.8396C15.4432 12.7237 14.9433 12.504 14.6334 12.3392C14.3306 12.1806 13.8165 11.8327 13.4856 11.5642C13.1335 11.2835 12.718 10.8564 12.4856 10.5573C12.2673 10.2705 11.9786 9.81897 11.8518 9.55047C11.725 9.28197 11.556 8.85481 11.4856 8.60462C11.4152 8.35442 11.2251 7.26822 11.0701 6.19421C10.9082 5.12021 10.7744 4.13774 10.7673 4.0096C10.7603 3.84483 10.7955 3.7472 10.88 3.68007C10.9786 3.61295 11.1124 3.60074 11.4786 3.63125C11.7391 3.64956 12.2039 3.72279 12.5138 3.78991C12.8236 3.85704 13.3658 4.0279 13.7109 4.17436C14.056 4.31471 14.5841 4.57101 14.8728 4.74187C15.1616 4.91273 15.6686 5.29718 15.9996 5.59619C16.3305 5.8891 16.7812 6.36508 16.9995 6.65188C17.2178 6.93869 17.5418 7.43298 17.7108 7.7503C17.8798 8.06761 18.1051 8.54969 18.2108 8.8182C18.3094 9.0867 18.4572 9.58098 18.5417 9.91661C18.6544 10.3926 18.6967 10.8319 18.7248 11.8998C18.746 12.9494 18.7812 13.3217 18.8657 13.4864C18.922 13.6024 19.091 13.9868 19.2389 14.3408C19.4009 14.7252 19.5417 14.9815 19.5981 14.9815C19.6614 14.9815 19.6896 14.9205 19.6896 14.8289C19.6826 14.7435 19.6051 14.4018 19.5135 14.0662C19.3727 13.5475 19.3516 13.2912 19.3516 12.327C19.3516 11.3995 19.3797 11.0882 19.5065 10.5879C19.584 10.2522 19.753 9.72744 19.8797 9.42842C20.1051 8.87922 20.1051 8.87922 20.0628 7.96388C20.0417 7.44518 20.0558 6.82275 20.091 6.52984C20.1332 6.24303 20.2459 5.79146 20.3445 5.52296C20.4431 5.25446 20.6473 4.8273 20.8022 4.57711C20.9572 4.32691 21.2177 3.96688 21.3867 3.78381C21.5487 3.60074 21.8233 3.33834 21.9923 3.19799C22.1614 3.06374 22.4923 2.83185 22.7247 2.6793C22.9571 2.53284 23.4641 2.27044 23.8514 2.09348C24.2388 1.92261 24.8866 1.68463 25.2951 1.56258C25.7035 1.44664 26.4148 1.29408 26.8795 1.22085C27.3443 1.15373 27.8372 1.06829 27.971 1.04389C28.1048 1.01337 28.5203 0.995067 28.8865 1.00117ZM26.281 2.07517C25.95 2.1484 25.3937 2.30706 25.0486 2.423C24.7035 2.54505 24.274 2.70981 24.0979 2.79524C23.9219 2.88067 23.6261 3.03933 23.4289 3.14917C23.2388 3.25901 22.8867 3.497 22.6613 3.67397C22.436 3.85094 22.1121 4.16215 21.9501 4.36353C21.7811 4.5649 21.5487 4.90663 21.4219 5.12631C21.2952 5.346 21.1403 5.71213 21.0698 5.95012C20.9994 6.18201 20.922 6.62137 20.8938 6.92649L20.8445 7.47569C21.4712 6.67019 21.7952 6.28575 21.9642 6.10268C22.1332 5.91961 22.6332 5.45584 23.0627 5.0775C23.4993 4.69915 23.9712 4.31471 24.119 4.22318C24.3514 4.07672 24.4078 4.06452 24.5557 4.13164C24.6542 4.17436 24.774 4.2781 24.8232 4.36353C24.8796 4.46727 24.8866 4.5466 24.8373 4.62593C24.7951 4.69305 24.4993 4.94935 24.1683 5.19954C23.8374 5.44973 23.3444 5.8891 23.0698 6.1698C22.7951 6.45051 22.436 6.84716 22.267 7.04853C22.098 7.24991 21.8163 7.62215 21.6473 7.87234C21.4853 8.12254 21.3515 8.33611 21.3656 8.34222C21.3797 8.34832 21.6895 8.31781 22.0557 8.26899C22.4219 8.22017 22.9571 8.14084 23.2388 8.08592C23.5134 8.0371 23.9782 7.91506 24.2599 7.82352C24.5345 7.73199 24.9993 7.51841 25.288 7.35365C25.5767 7.18278 25.95 6.90818 26.119 6.74342C26.281 6.57256 26.4993 6.31626 26.5908 6.1637C26.6894 6.01115 27.1471 5.02257 27.6189 3.96688C28.0908 2.91118 28.5062 1.98364 28.5415 1.90431C28.5978 1.77616 28.5907 1.77006 28.3443 1.77616C28.1964 1.78226 27.8091 1.81888 27.4781 1.86159C27.1471 1.90431 26.6119 2.00194 26.281 2.07517ZM11.9363 6.23693C12.0771 7.25601 12.2462 8.23848 12.3025 8.42155C12.3659 8.60462 12.4997 8.93414 12.5983 9.15382C12.7039 9.3735 12.9151 9.73964 13.0701 9.97153C13.232 10.2034 13.5982 10.6123 13.8869 10.8808C14.1757 11.1432 14.6193 11.4849 14.8728 11.6252C15.1264 11.7656 15.4996 11.9548 15.6968 12.0463C15.901 12.1317 16.3658 12.2904 16.7179 12.388C17.077 12.4918 17.3798 12.5711 17.3939 12.5589C17.4009 12.5467 17.253 12.2904 17.0559 11.9914C16.8587 11.6863 16.1615 10.777 15.4996 9.95932C14.6757 8.93414 14.3095 8.43375 14.3095 8.31171C14.3024 8.22017 14.3588 8.09813 14.4292 8.04321C14.4996 7.98218 14.6404 7.93336 14.7461 7.93336C14.894 7.93336 14.9926 7.99439 15.1404 8.15915C15.2531 8.2873 15.7813 8.94024 16.3165 9.61149C16.8587 10.2827 17.4361 11.0211 17.6052 11.2591L17.915 11.6863C17.8446 10.8319 17.7671 10.3255 17.6897 10.0081C17.6192 9.69082 17.4573 9.17823 17.3376 8.87922C17.2108 8.5741 16.9573 8.06761 16.7671 7.7503C16.577 7.43298 16.2672 6.99361 16.077 6.77393C15.8869 6.55425 15.4644 6.1576 15.1404 5.8891C14.8095 5.6206 14.2954 5.27277 13.9855 5.10801C13.6827 4.94935 13.1616 4.74187 12.8306 4.63813C12.4997 4.54049 12.1053 4.44286 11.9504 4.42455L11.6687 4.38183L11.9363 6.23693ZM25.2951 9.00126C25.0486 9.0867 24.6331 9.29417 24.3796 9.45893C24.1331 9.6237 23.7881 9.91661 23.6191 10.1119C23.4501 10.3072 23.2106 10.6489 23.0839 10.8686C22.9571 11.0821 22.8022 11.3995 22.7388 11.5703C22.6754 11.7351 22.5628 12.15 22.4782 12.4857C22.4008 12.8213 22.3374 13.1264 22.3374 13.1691C22.3374 13.2118 22.3656 13.2424 22.4008 13.2301C22.436 13.224 23.281 12.5711 24.274 11.7839C25.2669 10.9906 26.1542 10.3194 26.2528 10.2888C26.3936 10.2339 26.45 10.2522 26.5978 10.3804C26.6964 10.4597 26.7809 10.5879 26.7809 10.655C26.7809 10.7221 26.7246 10.8381 26.6542 10.9113C26.5908 10.9845 25.7035 11.6924 24.6965 12.4857C23.6895 13.279 22.8585 13.9563 22.8515 13.9868C22.8444 14.0173 23.1895 14.0418 23.6402 14.0418C24.119 14.0418 24.6613 13.999 24.9641 13.9441C25.2458 13.8892 25.788 13.7183 26.1753 13.5536C26.7387 13.3217 26.9992 13.163 27.4711 12.7786C27.795 12.5162 28.2316 12.0829 28.4358 11.8144C28.64 11.5459 28.9358 11.0882 29.0837 10.8075C29.2386 10.5207 29.4288 10.1058 29.5133 9.8922C29.5907 9.67252 29.7104 9.31248 29.7738 9.0989C29.8372 8.87922 29.9287 8.43985 29.978 8.12254C30.0273 7.79911 30.0625 7.53672 30.0555 7.53672C30.0485 7.53061 29.0766 7.82963 27.9006 8.18966C26.7176 8.5497 25.5486 8.91583 25.2951 9.00126ZM21.6543 9.1111L20.8586 9.19044C20.5346 10.0387 20.3938 10.4658 20.3304 10.6855C20.267 10.9052 20.2037 11.4971 20.1825 12.028C20.1473 12.7603 20.1685 13.102 20.26 13.5536C20.3234 13.8709 20.4431 14.3286 20.5276 14.5665L20.6825 15.0059C21.1825 14.3774 21.2811 14.1882 21.2811 14.054C21.2811 13.9441 21.3586 13.4681 21.4572 12.9861C21.5487 12.5101 21.6966 11.8998 21.774 11.6313C21.8515 11.3628 22.0346 10.9357 22.1684 10.6855C22.3092 10.4292 22.5557 10.0631 22.7247 9.86169C22.8937 9.66031 23.2177 9.33689 23.4571 9.14162C23.6895 8.95245 23.8444 8.79379 23.8022 8.79989C23.7529 8.80599 23.4289 8.85481 23.0768 8.91583C22.7318 8.97686 22.0909 9.06229 21.6543 9.1111ZM13.3236 15.6039C13.063 15.7138 12.6828 15.9762 12.1264 16.4461C11.6828 16.8183 11.1124 17.2454 10.8589 17.398C10.6124 17.5445 10.1476 17.7641 9.83777 17.8923C9.52792 18.0204 9.04202 18.1791 8.74625 18.2462C8.45753 18.3195 8.00684 18.3927 7.74628 18.4171L7.26742 18.4659V28.3211C9.09836 28.8337 9.9927 29.0534 10.4363 29.1388C10.887 29.2242 11.6194 29.3341 12.0771 29.3829C12.7602 29.4622 13.8306 29.4805 18.2037 29.4744C23.2247 29.4744 23.5134 29.4683 23.7106 29.3646C23.8303 29.3036 23.9923 29.1571 24.0838 29.0473C24.1895 28.9008 24.2388 28.7483 24.2388 28.5347C24.2388 28.3455 24.1895 28.1563 24.105 28.0465C24.0345 27.9428 23.8726 27.8024 23.7388 27.7292C23.5134 27.5949 23.436 27.5888 21.9149 27.5888C20.7882 27.5888 20.2811 27.5644 20.1544 27.5095C20.0206 27.4485 19.9783 27.3813 19.9783 27.2227C19.9783 27.0579 20.0206 26.9908 20.1544 26.9359C20.2882 26.8749 20.8797 26.8565 22.429 26.8565H24.5204C25.1894 26.3134 25.1894 26.3134 25.1894 25.9107C25.1894 25.5018 25.1894 25.5018 24.8585 25.2333L24.5204 24.9648C20.8797 24.9587 20.2882 24.9404 20.1544 24.8855C20.0206 24.8245 19.9783 24.7574 19.9783 24.5987C19.9783 24.4339 20.0206 24.3668 20.1544 24.3119C20.2882 24.2509 20.9994 24.2326 23.0275 24.2326C25.281 24.2326 25.7528 24.2143 25.9289 24.141C26.0486 24.0861 26.2176 23.958 26.3162 23.8481C26.4077 23.7383 26.5063 23.5552 26.5345 23.4393C26.5626 23.3172 26.5486 23.1281 26.5063 23.0121C26.4641 22.8901 26.3021 22.6948 26.1472 22.5666L25.8584 22.3409C21.0135 22.3348 20.2882 22.3164 20.1544 22.2615C20.0206 22.2005 19.9783 22.1334 19.9783 21.9747C19.9783 21.81 20.0206 21.7428 20.1544 21.6879C20.2882 21.6269 21.0205 21.6086 23.1332 21.6086H25.9289C26.3443 21.2913 26.5063 21.1021 26.5626 20.9923C26.626 20.858 26.6471 20.6749 26.619 20.4797C26.5838 20.2234 26.5274 20.1318 26.288 19.9305L25.9993 19.6864C19.9924 19.7169 18.5206 19.7047 18.4291 19.6681C18.3516 19.6375 18.0981 19.5765 17.8657 19.5399C17.6333 19.5033 17.2249 19.3812 16.9502 19.2653C16.6615 19.1433 16.2953 18.9175 16.0559 18.7161C15.8306 18.5269 15.563 18.2401 15.4573 18.0815C15.3517 17.9228 15.2179 17.6665 15.1475 17.5201C15.07 17.3309 15.0559 17.2027 15.0982 17.1051C15.1263 17.0319 15.2179 16.9525 15.2954 16.9403C15.3728 16.922 15.4996 16.922 15.577 16.9403C15.6686 16.9586 15.8024 17.1173 15.9362 17.3797C16.077 17.636 16.3094 17.9289 16.5559 18.1486C16.8024 18.3683 17.1263 18.5757 17.408 18.6978C17.8375 18.8809 17.922 18.8931 18.746 18.9114L19.6262 18.9358C19.5488 18.3805 19.4572 17.8923 19.3797 17.4895C19.3023 17.0868 19.1474 16.4644 19.0488 16.1165L18.8516 15.4758L13.7109 15.4453L13.3236 15.6039ZM2.1056 17.1661C2.03518 17.2393 1.95068 17.398 1.91547 17.5201C1.87321 17.6482 1.85913 20.1318 1.86617 23.6834C1.88026 29.212 1.89434 29.6453 2.00701 29.8284C2.07743 29.9382 2.23236 30.0786 2.35912 30.1335C2.55629 30.225 2.79572 30.2433 4.13371 30.2433C5.47874 30.2433 5.71817 30.225 5.91535 30.1335C6.04211 30.0786 6.19703 29.9382 6.26745 29.8284C6.38013 29.6453 6.38717 29.2242 6.38717 23.5613C6.38717 17.8923 6.38013 17.4773 6.26745 17.2882C6.19703 17.1783 6.04211 17.0441 5.91535 16.9831C5.72521 16.8915 5.46466 16.8732 4.23934 16.861C3.11966 16.8488 2.73939 16.8671 2.51404 16.9342C2.35912 16.9831 2.17602 17.0868 2.1056 17.1661ZM20.4853 17.7336C20.4572 17.8984 20.4361 18.234 20.4361 18.4781V18.9236C20.929 18.9236 21.0698 18.8992 21.0769 18.8748C21.0769 18.8504 20.9501 18.5147 20.8022 18.1303L20.5346 17.4285L20.4853 17.7336Z" fill="#0C3010" stroke="#0C3010"/>
<path d="M21.9845 19.6924C22.6604 19.6863 22.1394 19.6741 20.8227 19.6741C19.506 19.6741 18.9498 19.6863 19.5905 19.6924C20.2312 19.7046 21.3085 19.7046 21.9845 19.6924Z" fill="#0C3010" stroke="#0C3010"/>
<path d="M19.3098 18.9602C19.4859 18.948 19.3591 18.9358 19.0282 18.9358C18.6973 18.9358 18.5564 18.948 18.7113 18.9602C18.8662 18.9724 19.1338 18.9724 19.3098 18.9602Z" fill="#0C3010" stroke="#0C3010"/>
<path d="M3.21719 19.0029C3.13974 18.9541 3.02708 18.9175 2.97075 18.9175C2.90738 18.9175 2.80176 18.9541 2.72431 19.0029C2.59053 19.0883 2.58349 19.1737 2.58349 21.633C2.58349 24.1044 2.59053 24.1776 2.72431 24.2631C2.80176 24.3119 2.91442 24.3485 2.97075 24.3485C3.02708 24.3485 3.13974 24.3119 3.21719 24.2631C3.35097 24.1776 3.35801 24.1044 3.35801 21.633C3.35801 19.1615 3.35097 19.0883 3.21719 19.0029Z" fill="#0C3010"/>
<path d="M3.23127 17.6482C3.18198 17.6055 3.06228 17.5688 2.96371 17.5749C2.85809 17.5749 2.73839 17.6116 2.70319 17.6482C2.66094 17.6909 2.60461 17.8129 2.57645 17.9106C2.5342 18.057 2.56237 18.1242 2.71023 18.2584C2.81585 18.356 2.93554 18.4293 2.97075 18.4293C3.013 18.4293 3.13269 18.356 3.23127 18.2645C3.37913 18.1242 3.4073 18.057 3.36505 17.9106C3.33689 17.8129 3.28056 17.6909 3.23127 17.6482Z" fill="#0C3010"/>
<path d="M3.21719 19.0029C3.13974 18.9541 3.02708 18.9175 2.97075 18.9175C2.90738 18.9175 2.80176 18.9541 2.72431 19.0029C2.59053 19.0883 2.58349 19.1737 2.58349 21.633C2.58349 24.1044 2.59053 24.1776 2.72431 24.2631C2.80176 24.3119 2.91442 24.3485 2.97075 24.3485C3.02708 24.3485 3.13974 24.3119 3.21719 24.2631C3.35097 24.1776 3.35801 24.1044 3.35801 21.633C3.35801 19.1615 3.35097 19.0883 3.21719 19.0029Z" stroke="#0C3010"/>
<path d="M3.23127 17.6482C3.18198 17.6055 3.06228 17.5688 2.96371 17.5749C2.85809 17.5749 2.73839 17.6116 2.70319 17.6482C2.66094 17.6909 2.60461 17.8129 2.57645 17.9106C2.5342 18.057 2.56237 18.1242 2.71023 18.2584C2.81585 18.356 2.93554 18.4293 2.97075 18.4293C3.013 18.4293 3.13269 18.356 3.23127 18.2645C3.37913 18.1242 3.4073 18.057 3.36505 17.9106C3.33689 17.8129 3.28056 17.6909 3.23127 17.6482Z" stroke="#0C3010"/>
</svg>
