<svg width="30" height="42" viewBox="0 0 30 42" fill="none" xmlns="http://www.w3.org/2000/svg">
<path fill-rule="evenodd" clip-rule="evenodd" d="M5.92071 1.59364L4.28589 3.18736L3.81723 2.75301C3.55946 2.51423 2.82286 1.81676 2.18027 1.20312C1.17491 0.243075 0.971964 0.0875 0.725179 0.0875C0.539643 0.0875 0.360893 0.163362 0.219197 0.302312L0 0.517038V21.028V41.5389L0.185089 41.7694C0.324911 41.9436 0.450179 42 0.69759 42C1.00313 42 1.1342 41.8932 2.6542 40.4051L4.28348 38.8103L5.91955 40.4051C8.09679 42.5276 7.76911 42.5277 9.85268 40.4031L11.4187 38.8062L13.0586 40.4031C14.5357 41.8414 14.7284 42 15 42C15.2716 42 15.4636 41.842 16.9365 40.4062L18.5714 38.8125L20.2063 40.4062C21.6793 41.842 21.8713 42 22.1429 42C22.4145 42 22.6065 41.842 24.0804 40.4051L25.7165 38.8103L27.3458 40.4051C28.8658 41.8932 28.9969 42 29.3024 42C29.5498 42 29.6751 41.9436 29.8149 41.7694L30 41.5389V21.028V0.517038L29.7808 0.302312C29.6392 0.16345 29.4604 0.0875 29.2751 0.0875C29.0294 0.0875 28.8286 0.240012 27.8644 1.15937C27.2461 1.74895 26.5094 2.44641 26.2273 2.70944L25.7144 3.18762L24.0794 1.59381C22.6064 0.158025 22.4145 0 22.1429 0C21.8713 0 21.6793 0.158025 20.2063 1.59381L18.5714 3.18754L16.9365 1.59381C15.4636 0.158025 15.2716 0 15 0C14.7284 0 14.5364 0.158025 13.0635 1.59381L11.4286 3.18754L9.79366 1.59381C8.32071 0.158025 8.12875 0 7.85714 0C7.58554 0 7.39357 0.157937 5.92071 1.59364ZM9.51134 3.325C10.9662 4.7432 11.1571 4.9 11.4286 4.9C11.7002 4.9 11.8921 4.74197 13.3651 3.30619L15 1.71246L16.6349 3.30619C18.1079 4.74197 18.2998 4.9 18.5714 4.9C18.843 4.9 19.035 4.74197 20.5079 3.30619L22.1429 1.71246L23.7778 3.30619C25.2476 4.739 25.443 4.9 25.7129 4.9C25.9794 4.9 26.1563 4.76079 27.2922 3.65706L28.5714 2.41404V21.042V39.6699L27.2991 38.3827C26.1415 37.2115 25.9991 37.0956 25.7197 37.0977C25.4421 37.0997 25.2563 37.2524 23.7778 38.6938L22.1429 40.2875L20.5079 38.6938C19.035 37.258 18.843 37.1 18.5714 37.1C18.2998 37.1 18.1079 37.258 16.6349 38.6938L15 40.2875L13.3651 38.6938C11.8981 37.2638 11.6994 37.1 11.4313 37.1C11.161 37.1 10.9796 37.2544 9.52509 38.7236L7.91759 40.347L6.25259 38.7236C4.74527 37.2538 4.55839 37.0997 4.28036 37.0977C4.00089 37.0956 3.85875 37.2112 2.70089 38.3827L1.42857 39.6699V21.042V2.41404L2.70777 3.65706C3.84464 4.76166 4.02054 4.9 4.28768 4.9C4.55813 4.9 4.75018 4.74189 6.20036 3.32561C7.08705 2.4598 7.83125 1.75105 7.85411 1.75061C7.87696 1.75026 8.62268 2.45875 9.51134 3.325ZM5.6817 9.98139C5.50018 10.1212 5.44643 10.2399 5.44643 10.5C5.44643 10.7601 5.50018 10.8788 5.6817 11.0186C5.91545 11.1988 5.96545 11.2 13.3434 11.2C20.6803 11.2 20.7722 11.1979 20.9642 11.0225C21.0711 10.925 21.1824 10.7521 21.2115 10.6383C21.2731 10.398 21.0556 9.93388 20.8442 9.85434C20.7647 9.8245 17.3736 9.8 13.3083 9.8C5.96589 9.8 5.91536 9.80122 5.6817 9.98139ZM5.6817 15.5814C5.50018 15.7212 5.44643 15.8399 5.44643 16.1C5.44643 16.3601 5.50018 16.4788 5.6817 16.6186C5.91134 16.7957 6.00741 16.8 9.74821 16.8H13.5796L13.7987 16.5852C13.9369 16.4498 14.0179 16.2705 14.0179 16.1C14.0179 15.9296 13.9369 15.7502 13.7987 15.6148L13.5796 15.4H9.74821C6.00741 15.4 5.91134 15.4043 5.6817 15.5814ZM17.9138 15.5814C17.5815 15.8375 17.5815 16.3625 17.9138 16.6186C18.141 16.7938 18.25 16.8 21.0875 16.8H24.026L24.2451 16.5852C24.3833 16.4498 24.4643 16.2705 24.4643 16.1C24.4643 15.9296 24.3833 15.7502 24.2451 15.6148L24.026 15.4H21.0875C18.25 15.4 18.141 15.4062 17.9138 15.5814ZM5.6817 19.0814C5.50018 19.2212 5.44643 19.3399 5.44643 19.6C5.44643 19.8601 5.50018 19.9788 5.6817 20.1186C5.91134 20.2957 6.00741 20.3 9.74821 20.3H13.5796L13.7987 20.0852C13.9369 19.9498 14.0179 19.7705 14.0179 19.6C14.0179 19.4296 13.9369 19.2502 13.7987 19.1148L13.5796 18.9H9.74821C6.00741 18.9 5.91134 18.9043 5.6817 19.0814ZM17.9138 19.0814C17.5815 19.3375 17.5815 19.8625 17.9138 20.1186C18.141 20.2938 18.25 20.3 21.0875 20.3H24.026L24.2451 20.0852C24.3833 19.9498 24.4643 19.7705 24.4643 19.6C24.4643 19.4296 24.3833 19.2502 24.2451 19.1148L24.026 18.9H21.0875C18.25 18.9 18.141 18.9062 17.9138 19.0814ZM13.9286 24.675V26.6H15.8929H17.8571V24.675V22.75H15.8929H13.9286V24.675ZM20.7143 23.0562C20.7143 23.3382 20.7355 23.3625 20.9821 23.3625C21.2203 23.3625 21.25 23.3916 21.25 23.625V23.8875H20.4018H19.5536V23.625C19.5536 23.3916 19.5238 23.3625 19.2857 23.3625C19.0476 23.3625 19.0179 23.3916 19.0179 23.625C19.0179 23.8667 18.993 23.8875 18.7054 23.8875C18.4177 23.8875 18.3929 23.9083 18.3929 24.15C18.3929 24.3917 18.4177 24.4125 18.7054 24.4125C18.993 24.4125 19.0179 24.3917 19.0179 24.15C19.0179 23.9166 19.0476 23.8875 19.2857 23.8875C19.5533 23.8875 19.5536 23.8879 19.5536 24.4083V24.9292L18.9955 24.9552L18.4375 24.9812L18.4118 25.7906L18.3862 26.6H18.702C18.9934 26.6 19.0179 26.5797 19.0179 26.3375C19.0179 26.1041 19.0476 26.075 19.2857 26.075C19.5238 26.075 19.5536 26.1041 19.5536 26.3375C19.5536 26.5792 19.5784 26.6 19.8661 26.6C20.1522 26.6 20.1786 26.6216 20.1786 26.857C20.1786 27.0829 20.1436 27.1172 19.8884 27.1414C19.6332 27.1654 19.5948 27.203 19.5703 27.4531C19.5456 27.7032 19.5106 27.7375 19.2801 27.7375C19.039 27.7375 19.0179 27.7123 19.0179 27.4257C19.0179 27.1267 19.006 27.115 18.7277 27.1414C18.4375 27.1688 18.4375 27.1687 18.4109 27.7156L18.3844 28.2625H17.8529C17.3219 28.2625 17.3214 28.2622 17.3214 28C17.3214 27.7666 17.3512 27.7375 17.5893 27.7375C17.8359 27.7375 17.8571 27.7132 17.8571 27.4312C17.8571 27.1493 17.8359 27.125 17.5893 27.125C17.3427 27.125 17.3214 27.1493 17.3214 27.4312C17.3214 27.7117 17.2994 27.7375 17.0592 27.7375C16.8287 27.7375 16.7937 27.7032 16.769 27.4531C16.7443 27.2016 16.7102 27.1687 16.4732 27.1687C16.207 27.1687 16.2052 27.1721 16.1787 27.7156L16.1522 28.2625H15.0404H13.9286V29.3562V30.45H14.2411C14.5288 30.45 14.5536 30.4292 14.5536 30.1875C14.5536 29.9541 14.5833 29.925 14.8214 29.925H15.0893V30.4937V31.0625H15.3571C15.5953 31.0625 15.625 31.0916 15.625 31.325V31.5875H14.7768H13.9286V31.8937V32.2H15.0446H16.1607V31.6313V31.0625H17.0089H17.8571V31.325C17.8571 31.5584 17.8274 31.5875 17.5893 31.5875C17.3427 31.5875 17.3214 31.6118 17.3214 31.8937C17.3214 32.1757 17.3427 32.2 17.5893 32.2C17.8359 32.2 17.8571 32.1757 17.8571 31.8937C17.8571 31.6129 17.879 31.5875 18.1207 31.5875C18.3817 31.5875 18.3846 31.5929 18.4109 32.1344C18.4375 32.6812 18.4375 32.6812 18.7277 32.7086C18.9829 32.7328 19.0179 32.7671 19.0179 32.993C19.0179 33.2202 19.0489 33.25 19.2857 33.25C19.5229 33.25 19.5536 33.2797 19.5536 33.5083C19.5536 33.7641 19.548 33.7669 18.9955 33.7927C18.4409 33.8186 18.4375 33.8203 18.4375 34.0812C18.4375 34.3135 18.471 34.3469 18.7277 34.3711C18.9829 34.3953 19.0179 34.4296 19.0179 34.6555C19.0179 34.8827 19.0489 34.9125 19.2857 34.9125C19.5238 34.9125 19.5536 34.9416 19.5536 35.175V35.4375H18.9732H18.3929V35.7C18.3929 35.9417 18.4177 35.9625 18.7054 35.9625C19.0029 35.9625 19.0179 35.9771 19.0179 36.2687V36.575H20.1339H21.25V36.2687C21.25 35.9868 21.2712 35.9625 21.5179 35.9625H21.7857V35.1805V34.3986L22.0759 34.3711C22.3311 34.3471 22.3695 34.3094 22.394 34.0594C22.4187 33.8093 22.4537 33.775 22.6842 33.775C22.9244 33.775 22.9464 33.8008 22.9464 34.0812C22.9464 34.374 22.9604 34.3875 23.2648 34.3875C23.5596 34.3875 23.5812 34.4054 23.555 34.6281C23.5315 34.8286 23.4784 34.8733 23.2366 34.8961C22.9814 34.9203 22.9464 34.9546 22.9464 35.1805C22.9464 35.4077 22.9154 35.4375 22.6786 35.4375H22.4107V36.0062V36.575H22.6786H22.9464V36.0062V35.4375H23.7946H24.6429V35.7V35.9625H25.4911H26.3393V36.2687V36.575H27.1875H28.0357V36.2687C28.0357 35.9771 28.0208 35.9625 27.7232 35.9625H27.4107V35.4375V34.9125H27.7232H28.0357V34.3438V33.775H27.7232C27.4355 33.775 27.4107 33.7542 27.4107 33.5125V33.25H26.6071H25.8036V32.725V32.2H26.3393H26.875V31.8937C26.875 31.6118 26.8962 31.5875 27.1429 31.5875C27.381 31.5875 27.4107 31.5584 27.4107 31.325C27.4107 31.0916 27.381 31.0625 27.1429 31.0625C26.8962 31.0625 26.875 31.0382 26.875 30.7563C26.875 30.4743 26.8962 30.45 27.1429 30.45C27.381 30.45 27.4107 30.4209 27.4107 30.1875C27.4107 29.9458 27.4355 29.925 27.7232 29.925C28.0109 29.925 28.0357 29.9042 28.0357 29.6625C28.0357 29.4208 28.0109 29.4 27.7232 29.4C27.4355 29.4 27.4107 29.3792 27.4107 29.1375C27.4107 28.9041 27.381 28.875 27.1429 28.875C26.8962 28.875 26.875 28.8507 26.875 28.5688C26.875 28.2868 26.8962 28.2625 27.1429 28.2625C27.381 28.2625 27.4107 28.2334 27.4107 28C27.4107 27.7666 27.381 27.7375 27.1429 27.7375C26.8962 27.7375 26.875 27.7132 26.875 27.4312C26.875 27.1493 26.8538 27.125 26.6071 27.125C26.3605 27.125 26.3393 27.1493 26.3393 27.4312C26.3393 27.7117 26.3172 27.7375 26.0771 27.7375C25.8465 27.7375 25.8115 27.7032 25.7869 27.4531C25.7589 27.1687 25.7589 27.1687 25.2009 27.1427L24.6429 27.1167V27.6895V28.2625H24.375C24.1284 28.2625 24.1071 28.2868 24.1071 28.5688C24.1071 28.8507 24.1284 28.875 24.375 28.875C24.6131 28.875 24.6429 28.9041 24.6429 29.1375V29.4H24.1071H23.5714V28.5688V27.7375H23.8449C24.0997 27.7375 24.1165 27.7181 24.0904 27.4531C24.0625 27.1687 24.0625 27.1687 23.5045 27.1427C22.952 27.1169 22.9464 27.1141 22.9464 26.8583C22.9464 26.6214 22.9723 26.6 23.2589 26.6H23.5714V26.075V25.55H23.2589H22.9464V26.075V26.6H22.6786C22.4404 26.6 22.4107 26.5709 22.4107 26.3375C22.4107 26.0958 22.3859 26.075 22.0982 26.075C21.8105 26.075 21.7857 26.0958 21.7857 26.3375C21.7857 26.5709 21.756 26.6 21.5179 26.6C21.2797 26.6 21.25 26.5709 21.25 26.3375C21.25 26.1041 21.2203 26.075 20.9821 26.075C20.744 26.075 20.7143 26.1041 20.7143 26.3375C20.7143 26.5709 20.6846 26.6 20.4464 26.6C20.2083 26.6 20.1786 26.5709 20.1786 26.3375C20.1786 26.0958 20.1538 26.075 19.8661 26.075H19.5536V25.5007V24.9264L19.8438 24.9539C20.0989 24.9779 20.1373 25.0155 20.1619 25.2656L20.1899 25.55H20.7199H21.25V25.2437C21.25 24.9618 21.2288 24.9375 20.9821 24.9375C20.744 24.9375 20.7143 24.9084 20.7143 24.675C20.7143 24.4416 20.744 24.4125 20.9821 24.4125C21.2203 24.4125 21.25 24.3834 21.25 24.15C21.25 23.9166 21.2797 23.8875 21.5179 23.8875C21.756 23.8875 21.7857 23.9166 21.7857 24.15C21.7857 24.3917 21.8105 24.4125 22.0982 24.4125C22.3859 24.4125 22.4107 24.3917 22.4107 24.15C22.4107 23.9166 22.4404 23.8875 22.6786 23.8875C22.9154 23.8875 22.9464 23.8577 22.9464 23.6305C22.9464 23.4046 22.9814 23.3703 23.2366 23.3461C23.4918 23.3221 23.5302 23.2845 23.5547 23.0344C23.5816 22.7616 23.5697 22.75 23.2646 22.75C22.9605 22.75 22.9464 22.7636 22.9464 23.0562C22.9464 23.3382 22.9252 23.3625 22.6786 23.3625C22.432 23.3625 22.4107 23.3382 22.4107 23.0562V22.75H21.5625H20.7143V23.0562ZM24.1071 24.675V26.6H26.0714H28.0357V24.675V22.75H26.0714H24.1071V24.675ZM17.3214 24.7188V26.075H15.9375H14.5536V24.7188V23.3625H15.9375H17.3214V24.7188ZM27.4107 24.7188V26.075H26.0268H24.6429V24.7188V23.3625H26.0268H27.4107V24.7188ZM15.0893 24.7221V25.5566L15.9152 25.5314L16.7411 25.5063L16.7668 24.6969L16.7924 23.8875H15.9409H15.0893V24.7221ZM25.1975 24.6969L25.2232 25.5063L26.0491 25.5314L26.875 25.5566V24.7221V23.8875H26.0234H25.1719L25.1975 24.6969ZM22.9464 24.6695C22.9464 24.9184 22.9691 24.9375 23.2648 24.9375C23.5596 24.9375 23.5812 24.9196 23.555 24.6969C23.5315 24.4964 23.4784 24.4517 23.2366 24.4289C22.9663 24.4033 22.9464 24.4198 22.9464 24.6695ZM5.6817 26.7814C5.50018 26.9212 5.44643 27.0399 5.44643 27.3C5.44643 27.5601 5.50018 27.6788 5.6817 27.8186C5.90884 27.9938 6.01786 28 8.85536 28H11.7938L12.0129 27.7852C12.1512 27.6498 12.2321 27.4704 12.2321 27.3C12.2321 27.1295 12.1512 26.9502 12.0129 26.8148L11.7938 26.6H8.85536C6.01786 26.6 5.90884 26.6062 5.6817 26.7814ZM21.25 26.8625C21.25 27.0959 21.2203 27.125 20.9821 27.125C20.7355 27.125 20.7143 27.1493 20.7143 27.4312C20.7143 27.7132 20.7355 27.7375 20.9821 27.7375C21.2193 27.7375 21.25 27.7672 21.25 27.9958C21.25 28.2516 21.2555 28.2544 21.808 28.2802C22.3661 28.3062 22.3661 28.3062 22.394 28.5906C22.4187 28.8407 22.4537 28.875 22.6842 28.875C22.9452 28.875 22.9464 28.8775 22.9464 29.4V29.925H22.6786C22.4404 29.925 22.4107 29.9541 22.4107 30.1875V30.45H21.8304H21.25V30.7563C21.25 31.0382 21.2712 31.0625 21.5179 31.0625C21.756 31.0625 21.7857 31.0916 21.7857 31.325V31.5875H21.25H20.7143V32.1562V32.725H20.9821C21.2203 32.725 21.25 32.6959 21.25 32.4625V32.2H22.0982H22.9464V32.725V33.25H22.6786C22.4404 33.25 22.4107 33.2791 22.4107 33.5125V33.775H21.8304H21.25V34.0812C21.25 34.3632 21.2288 34.3875 20.9821 34.3875C20.744 34.3875 20.7143 34.4166 20.7143 34.65C20.7143 34.8834 20.744 34.9125 20.9821 34.9125C21.2203 34.9125 21.25 34.9416 21.25 35.175C21.25 35.4084 21.2203 35.4375 20.9821 35.4375C20.744 35.4375 20.7143 35.4084 20.7143 35.175V34.9125H20.1339H19.5536V34.6555C19.5536 34.4296 19.5886 34.3953 19.8438 34.3711C20.1339 34.3438 20.1339 34.3438 20.1605 33.7969L20.1871 33.25H19.8704C19.5779 33.25 19.5536 33.2299 19.5536 32.9875C19.5536 32.7541 19.5238 32.725 19.2857 32.725H19.0179V32.1562V31.5875H18.7054C18.4177 31.5875 18.3929 31.5667 18.3929 31.325C18.3929 31.0916 18.3631 31.0625 18.125 31.0625C17.8784 31.0625 17.8571 31.0382 17.8571 30.7563C17.8571 30.4743 17.8359 30.45 17.5893 30.45C17.3512 30.45 17.3214 30.4209 17.3214 30.1875C17.3214 29.9541 17.3512 29.925 17.5893 29.925C17.8274 29.925 17.8571 29.9541 17.8571 30.1875C17.8571 30.4209 17.8869 30.45 18.125 30.45C18.3716 30.45 18.3929 30.4743 18.3929 30.7563C18.3929 31.0479 18.4078 31.0625 18.7054 31.0625C18.993 31.0625 19.0179 31.0833 19.0179 31.325V31.5875H19.6025H20.1871L20.1605 31.0406L20.1339 30.4937L19.5759 30.4677L19.0179 30.4417V29.9208V29.4H18.7054C18.4177 29.4 18.3929 29.3792 18.3929 29.1375C18.3929 28.8968 18.4183 28.875 18.6997 28.875C18.9806 28.875 19.0089 28.8509 19.0346 28.5906C19.0625 28.3062 19.0625 28.3062 19.6205 28.2802L20.1786 28.2542V27.6895V27.125H20.4464C20.6846 27.125 20.7143 27.0959 20.7143 26.8625C20.7143 26.6291 20.744 26.6 20.9821 26.6C21.2203 26.6 21.25 26.6291 21.25 26.8625ZM22.4107 26.8625C22.4107 27.0959 22.4404 27.125 22.6786 27.125C22.9252 27.125 22.9464 27.1493 22.9464 27.4312V27.7375H22.3661H21.7857V27.1687V26.6H22.0982C22.3859 26.6 22.4107 26.6208 22.4107 26.8625ZM14.5536 27.4312C14.5536 27.7132 14.5748 27.7375 14.8214 27.7375C15.068 27.7375 15.0893 27.7132 15.0893 27.4312C15.0893 27.1493 15.068 27.125 14.8214 27.125C14.5748 27.125 14.5536 27.1493 14.5536 27.4312ZM26.875 28C26.875 28.2334 26.8453 28.2625 26.6071 28.2625C26.369 28.2625 26.3393 28.2334 26.3393 28C26.3393 27.7666 26.369 27.7375 26.6071 27.7375C26.8453 27.7375 26.875 27.7666 26.875 28ZM17.3214 28.5688C17.3214 28.8507 17.3427 28.875 17.5893 28.875C17.8274 28.875 17.8571 28.9041 17.8571 29.1375C17.8571 29.3709 17.8274 29.4 17.5893 29.4C17.3521 29.4 17.3214 29.3703 17.3214 29.1417C17.3214 28.8859 17.3159 28.883 16.7634 28.8573C16.2054 28.8312 16.2054 28.8312 16.1774 28.5469L16.1494 28.2625H16.7354H17.3214V28.5688ZM20.1786 28.5688C20.1786 28.8507 20.1998 28.875 20.4464 28.875C20.693 28.875 20.7143 28.8507 20.7143 28.5688C20.7143 28.2868 20.693 28.2625 20.4464 28.2625C20.1998 28.2625 20.1786 28.2868 20.1786 28.5688ZM25.7617 28.5688C25.7641 28.7997 25.7989 28.8346 26.0519 28.8586C26.3039 28.8827 26.3393 28.9177 26.3393 29.143C26.3393 29.3702 26.3082 29.4 26.0714 29.4C25.8333 29.4 25.8036 29.4291 25.8036 29.6625V29.925H26.3393H26.875V30.1875V30.45H26.3393H25.8036V30.1875C25.8036 29.9458 25.7788 29.925 25.4911 29.925C25.2034 29.925 25.1786 29.9458 25.1786 30.1875V30.45H24.6429H24.1071V31.0187V31.5875H23.2589H22.4107V31.3292C22.4107 31.0734 22.4163 31.0705 22.9688 31.0448L23.5268 31.0187L23.5534 30.4719L23.5799 29.925H24.3793H25.1786V29.1521C25.1786 28.7269 25.2072 28.3511 25.2422 28.3168C25.2771 28.2825 25.4078 28.2661 25.5324 28.2803C25.7179 28.3015 25.7595 28.3538 25.7617 28.5688ZM15.0893 29.1375C15.0893 29.3709 15.119 29.4 15.3571 29.4C15.5953 29.4 15.625 29.4291 15.625 29.6625V29.925H16.2054H16.7857V30.1875V30.45H16.2054H15.625V30.1875C15.625 29.9541 15.5953 29.925 15.3571 29.925C15.119 29.925 15.0893 29.8959 15.0893 29.6625C15.0893 29.4291 15.0596 29.4 14.8214 29.4C14.5833 29.4 14.5536 29.3709 14.5536 29.1375C14.5536 28.9041 14.5833 28.875 14.8214 28.875C15.0596 28.875 15.0893 28.9041 15.0893 29.1375ZM21.7857 29.1375V29.4H20.9821H20.1786V29.6625V29.925H21.2946H22.4107V29.4V28.875H22.0982C21.8105 28.875 21.7857 28.8958 21.7857 29.1375ZM5.6817 30.0189C5.50018 30.1587 5.44643 30.2774 5.44643 30.5375C5.44643 30.7976 5.50018 30.9163 5.6817 31.0561C5.90884 31.2313 6.01786 31.2375 8.85536 31.2375H11.7938L12.0129 31.0227C12.1512 30.8873 12.2321 30.7079 12.2321 30.5375C12.2321 30.3671 12.1512 30.1877 12.0129 30.0523L11.7938 29.8375H8.85536C6.01786 29.8375 5.90884 29.8437 5.6817 30.0189ZM26.3393 31.325C26.3393 31.5584 26.3096 31.5875 26.0714 31.5875C25.8333 31.5875 25.8036 31.5584 25.8036 31.325C25.8036 31.0916 25.8333 31.0625 26.0714 31.0625C26.3096 31.0625 26.3393 31.0916 26.3393 31.325ZM25.1786 32.9875V33.775H24.375H23.5714V32.9875V32.2H24.375H25.1786V32.9875ZM13.9286 34.65V36.575H15.8929H17.8571V34.65V32.725H15.8929H13.9286V34.65ZM24.1071 32.9875C24.1071 33.2209 24.1369 33.25 24.375 33.25C24.6131 33.25 24.6429 33.2209 24.6429 32.9875C24.6429 32.7541 24.6131 32.725 24.375 32.725C24.1369 32.725 24.1071 32.7541 24.1071 32.9875ZM5.6817 33.2564C5.50018 33.3962 5.44643 33.5149 5.44643 33.775C5.44643 34.0351 5.50018 34.1538 5.6817 34.2936C5.90884 34.4688 6.01786 34.475 8.85536 34.475H11.7938L12.0129 34.2602C12.1512 34.1248 12.2321 33.9454 12.2321 33.775C12.2321 33.6045 12.1512 33.4252 12.0129 33.2898L11.7938 33.075H8.85536C6.01786 33.075 5.90884 33.0812 5.6817 33.2564ZM17.3214 34.6063V35.9625H15.9375H14.5536V34.6063V33.25H15.9375H17.3214V34.6063ZM20.7143 33.5125C20.7143 33.7459 20.744 33.775 20.9821 33.775C21.2203 33.775 21.25 33.7459 21.25 33.5125C21.25 33.2791 21.2203 33.25 20.9821 33.25C20.744 33.25 20.7143 33.2791 20.7143 33.5125ZM15.0893 34.6063V35.4375H15.9375H16.7857V34.6063V33.775H15.9375H15.0893V34.6063ZM27.4107 34.087C27.4107 34.3759 27.3924 34.397 27.1652 34.3714C26.9606 34.3484 26.915 34.2963 26.8917 34.0594C26.8656 33.7944 26.8824 33.775 27.1372 33.775C27.3913 33.775 27.4107 33.7972 27.4107 34.087ZM26.3393 34.65C26.3393 34.8834 26.369 34.9125 26.6071 34.9125C26.8453 34.9125 26.875 34.9416 26.875 35.175C26.875 35.4084 26.8453 35.4375 26.6071 35.4375C26.369 35.4375 26.3393 35.4084 26.3393 35.175C26.3393 34.9416 26.3096 34.9125 26.0714 34.9125C25.8333 34.9125 25.8036 34.9416 25.8036 35.175V35.4375H25.2232H24.6429V35.175C24.6429 34.9416 24.6726 34.9125 24.9107 34.9125C25.1488 34.9125 25.1786 34.8834 25.1786 34.65V34.3875H25.7589H26.3393V34.65ZM20.1786 35.7C20.1786 35.9417 20.1538 35.9625 19.8661 35.9625C19.5784 35.9625 19.5536 35.9417 19.5536 35.7C19.5536 35.4583 19.5784 35.4375 19.8661 35.4375C20.1538 35.4375 20.1786 35.4583 20.1786 35.7Z" fill="black"/>
</svg>
