<svg width="121" height="122" viewBox="0 0 121 122" fill="none" xmlns="http://www.w3.org/2000/svg">
<path d="M59.3167 63.3384C66.1741 63.3384 71.7331 57.7169 71.7331 50.7825C71.7331 43.8481 66.1741 38.2267 59.3167 38.2267C52.4594 38.2267 46.9004 43.8481 46.9004 50.7825C46.9004 57.7169 52.4594 63.3384 59.3167 63.3384Z" stroke="black" stroke-width="1.5" stroke-linecap="round" stroke-linejoin="round"/>
<path d="M34.2852 98.0578V90.8903C34.2852 82.5536 40.9708 75.8436 49.1646 75.8436H71.4336C79.6776 75.8436 86.313 82.6045 86.313 90.8903V98.0578" stroke="black" stroke-width="1.5" stroke-linecap="round" stroke-linejoin="round"/>
<path d="M60.3226 108.021C86.0029 108.021 106.821 86.9688 106.821 60.9999C106.821 35.0311 86.0029 13.9791 60.3226 13.9791C34.6423 13.9791 13.8242 35.0311 13.8242 60.9999C13.8242 86.9688 34.6423 108.021 60.3226 108.021Z" stroke="black" stroke-width="1.5" stroke-linecap="round" stroke-linejoin="round"/>
</svg>
