<svg width="30" height="36" viewBox="0 0 30 36" fill="none" xmlns="http://www.w3.org/2000/svg">
<g filter="url(#filter0_d_1_863)">
<path d="M25 26.25V23.75C25 22.4239 24.4732 21.1521 23.5355 20.2145C22.5979 19.2768 21.3261 18.75 20 18.75H10C8.67392 18.75 7.40215 19.2768 6.46447 20.2145C5.52678 21.1521 5 22.4239 5 23.75V26.25" stroke="#0C3010" stroke-width="2" stroke-linecap="round" stroke-linejoin="round"/>
<path d="M15 13.75C17.7614 13.75 20 11.5114 20 8.75C20 5.98858 17.7614 3.75 15 3.75C12.2386 3.75 10 5.98858 10 8.75C10 11.5114 12.2386 13.75 15 13.75Z" stroke="#0C3010" stroke-width="2" stroke-linecap="round" stroke-linejoin="round"/>
</g>
<defs>
<filter id="filter0_d_1_863" x="-4" y="0" width="38" height="38" filterUnits="userSpaceOnUse" color-interpolation-filters="sRGB">
<feFlood flood-opacity="0" result="BackgroundImageFix"/>
<feColorMatrix in="SourceAlpha" type="matrix" values="0 0 0 0 0 0 0 0 0 0 0 0 0 0 0 0 0 0 127 0" result="hardAlpha"/>
<feOffset dy="4"/>
<feGaussianBlur stdDeviation="2"/>
<feComposite in2="hardAlpha" operator="out"/>
<feColorMatrix type="matrix" values="0 0 0 0 0 0 0 0 0 0 0 0 0 0 0 0 0 0 0.25 0"/>
<feBlend mode="normal" in2="BackgroundImageFix" result="effect1_dropShadow_1_863"/>
<feBlend mode="normal" in="SourceGraphic" in2="effect1_dropShadow_1_863" result="shape"/>
</filter>
</defs>
</svg>
