<svg width="30" height="30" viewBox="0 0 30 30" fill="none" xmlns="http://www.w3.org/2000/svg">
<path d="M8.43711 12.1873C7.4 12.1873 6.56211 13.0193 6.56211 14.0095C6.56211 15.0994 7.4 15.9373 8.43711 15.9373C9.47422 15.9373 10.2594 15.1023 10.2594 14.0623C10.2594 13.0222 9.48008 12.1873 8.43711 12.1873ZM14.9996 12.1345C13.9596 12.1345 13.1773 12.9695 13.1773 14.0095C13.1773 15.0496 14.0123 15.8318 14.9996 15.8318C15.9869 15.8318 16.8219 14.9968 16.8219 14.0095C16.8219 13.0222 16.0426 12.1345 14.9996 12.1345ZM21.5621 12.1873C20.5221 12.1873 19.7398 13.0222 19.7398 14.0623C19.7398 15.1023 20.5748 15.9373 21.5621 15.9373C22.6022 15.9373 23.4365 15.1023 23.4365 14.0623C23.4371 13.0193 22.6051 12.1873 21.5621 12.1873ZM14.9996 1.82202C6.71446 1.82202 0.0523471 7.27827 0.0523471 14.0095C0.0523471 16.7998 1.21895 19.3562 3.15254 21.4099C2.28125 23.7244 0.464847 25.6802 0.43555 25.7019C0.0474252 26.1121 -0.0550553 26.7126 0.164613 27.2253C0.340511 27.7849 0.842191 28.1248 1.40586 28.1248C5.00879 28.1248 7.79844 26.616 9.55625 25.4148C11.2479 25.9421 13.0813 26.2498 14.9996 26.2498C23.2848 26.2498 29.9469 20.7929 29.9469 14.115C29.9469 7.43706 23.2848 1.82202 14.9996 1.82202ZM14.9996 23.4373C13.4322 23.4373 11.8871 23.1956 10.4082 22.7271L9.0752 22.3096L7.93321 23.115C7.09825 23.708 5.94864 24.3677 4.56465 24.8142C4.99672 24.1041 5.40664 23.3054 5.72891 22.4558L6.35118 20.8152L5.14297 19.5337C4.09004 18.4041 2.81563 16.5349 2.81563 14.0623C2.81563 8.89136 8.27891 4.68726 14.9504 4.68726C21.6219 4.68726 27.0852 8.89136 27.0852 14.0623C27.0852 19.2332 21.7262 23.4373 14.9996 23.4373Z" fill="#0C3010"/>
</svg>
